<?xml version="1.0" standalone="no"?>
<!DOCTYPE svg PUBLIC "-//W3C//DTD SVG 20010904//EN"
 "http://www.w3.org/TR/2001/REC-SVG-20010904/DTD/svg10.dtd">
<svg version="1.0" xmlns="http://www.w3.org/2000/svg"
 width="229.000000pt" height="229.000000pt" viewBox="0 0 229.000000 229.000000"
 preserveAspectRatio="xMidYMid meet">
<metadata>
Created by potrace 1.11, written by Peter Selinger 2001-2013
</metadata>
<g transform="translate(0.000000,229.000000) scale(0.100000,-0.100000)"
fill="#000000" stroke="none">
<path d="M1078 2265 c-2 -2 -30 -5 -63 -8 -74 -7 -170 -22 -170 -27 0 -1 -8
-3 -17 -5 -9 -2 -41 -11 -70 -21 -29 -10 -56 -17 -60 -16 -5 1 -8 -3 -8 -10 0
-6 -3 -9 -6 -6 -9 9 -153 -70 -238 -131 -93 -66 -216 -189 -254 -253 -9 -16
-20 -28 -24 -28 -4 0 -8 -7 -8 -15 0 -8 -3 -15 -7 -15 -5 0 -24 -33 -43 -73
-19 -39 -37 -74 -40 -77 -3 -3 -17 -39 -30 -80 -14 -41 -28 -77 -32 -80 -11
-9 -8 -602 3 -616 5 -7 9 -16 8 -20 -2 -9 4 -29 21 -69 5 -11 19 -45 31 -75
13 -30 28 -58 33 -62 6 -4 8 -8 4 -8 -7 0 41 -85 64 -115 91 -118 188 -224
188 -208 0 5 5 0 10 -9 15 -25 154 -120 236 -161 154 -78 150 -77 520 -77 298
0 336 2 385 19 103 36 177 75 305 162 51 35 161 141 210 204 21 28 42 52 45
55 33 29 152 277 165 343 2 10 6 27 9 37 3 10 8 28 10 39 3 12 7 30 9 41 12
53 25 305 16 305 -1 0 -3 16 -5 35 -5 64 -20 131 -55 240 -19 60 -77 190 -89
200 -3 3 -15 21 -26 40 -43 78 -172 226 -244 280 -18 14 -38 30 -44 36 -86 78
-365 199 -486 210 -14 1 -26 3 -26 4 0 5 -222 20 -227 15z"/>
</g>
</svg>
